
<svg width="316px" height="92px" viewBox="0 0 316 92" version="1.1" xmlns="http://www.w3.org/2000/svg" xmlns:xlink="http://www.w3.org/1999/xlink">
    <g id="Page-1" stroke="none" stroke-width="1" fill="none" fill-rule="evenodd">
        <g id="BIU_Logo_liggend" transform="translate(-3.000000, -176.000000)" fill="#1A1919">
            <g id="Fill-4" transform="translate(3.694000, 176.077000)">
                <path d="M56.708,43.633 C63.319,41.282 68.754,34.23 68.754,24.534 C68.754,8.374 57.442,1.42108547e-14 38.638,1.42108547e-14 L0,1.42108547e-14 L0,90.203 L41.429,90.203 C60.234,90.203 71.399,81.242 71.399,64.935 C71.399,54.798 65.229,46.424 56.708,43.633 Z M22.477,35.699 L22.477,19.392 L35.993,19.392 C42.898,19.392 46.571,21.89 46.571,27.472 C46.571,33.055 42.898,35.699 35.993,35.699 L22.477,35.699 Z M22.477,53.329 L38.344,53.329 C44.955,53.329 48.628,56.708 48.628,62.143 C48.628,67.285 44.955,70.811 38.344,70.811 L22.477,70.811 L22.477,53.329 Z M118.115,67.138 C116.793,71.693 113.12,73.749 108.419,73.749 C101.808,73.749 97.695,69.489 96.96,61.556 L139.711,61.556 L139.711,55.826 C139.711,36.14 128.252,22.624 107.978,22.624 C88.88,22.624 74.777,36.728 74.777,57.148 C74.777,77.716 88.145,91.672 108.419,91.672 C125.608,91.672 137.067,82.417 139.417,67.138 L118.115,67.138 Z M107.978,40.547 C113.708,40.547 117.087,44.661 117.381,50.097 L97.401,50.097 C98.87,43.926 102.543,40.547 107.978,40.547 Z M204.937,90.203 L204.937,49.656 C204.937,32.467 194.213,22.477 175.408,22.477 C158.367,22.477 147.055,32.614 145.145,45.395 L166.888,45.395 C167.916,42.457 170.413,40.547 174.674,40.547 C180.256,40.547 182.754,44.22 182.754,48.481 L182.754,52.741 C180.11,50.831 173.646,49.068 168.21,49.068 C153.813,49.068 142.794,57.295 142.794,70.076 C142.794,84.033 153.813,91.379 166.888,91.379 C173.939,91.379 180.55,89.028 182.754,86.824 L182.754,90.203 L204.937,90.203 Z M182.754,71.693 C181.285,74.337 177.318,76.1 173.058,76.1 C168.504,76.1 163.949,74.19 163.949,69.636 C163.949,65.228 168.504,63.319 173.058,63.319 C177.318,63.319 181.285,65.082 182.754,67.873 L182.754,71.693 Z M271.634,30.558 C267.668,25.856 261.791,22.624 253.418,22.624 C246.072,22.624 239.755,25.416 236.376,29.529 L236.376,24.093 L213.311,24.093 L213.311,90.203 L236.376,90.203 L236.376,49.95 C237.404,45.395 240.93,42.898 244.897,42.898 C250.039,42.898 252.389,46.865 252.389,52.447 L252.389,90.203 L275.307,90.203 L275.307,49.95 C276.483,45.395 279.861,42.898 283.828,42.898 C288.97,42.898 291.32,46.865 291.32,52.447 L291.32,90.203 L314.385,90.203 L314.385,46.865 C314.385,32.027 305.865,22.624 292.055,22.624 C282.359,22.624 275.601,26.444 271.634,30.558 L271.634,30.558 Z" id="Fill-3"></path>
            </g>
        </g>
    </g>
</svg>