
<svg width="589px" height="116px" viewBox="0 0 589 116" version="1.1" xmlns="http://www.w3.org/2000/svg" xmlns:xlink="http://www.w3.org/1999/xlink">
    <g id="Page-1" stroke="none" stroke-width="1" fill="none" fill-rule="evenodd">
        <g id="BIU_Logo_liggend" transform="translate(-3.000000, -152.000000)" fill="#1A1919">
            <g id="Group-2" transform="translate(3.694000, 152.723000)">
                <g id="Group" transform="translate(337.053000, 0.000000)">
                    <path d="M1.469,113.557 L24.534,113.557 L24.534,47.447 L1.469,47.447 L1.469,113.557 Z M26.15,29.524 C26.15,21.885 20.127,17.037 13.075,17.037 C6.023,17.037 -2.84217094e-14,21.885 -2.84217094e-14,29.524 C-2.84217094e-14,37.017 6.023,41.865 13.075,41.865 C20.127,41.865 26.15,37.017 26.15,29.524 Z M38.93,90.786 C38.93,107.534 47.744,114.879 63.317,114.879 C68.459,114.879 73.454,113.998 76.098,112.823 L76.098,93.284 C74.041,94.165 71.25,94.753 68.752,94.753 C64.198,94.753 61.701,92.549 61.701,87.407 L61.701,65.371 L75.51,65.371 L75.51,47.447 L61.701,47.447 L61.701,29.231 L38.93,29.231 L38.93,47.447 L29.233,47.447 L29.233,65.371 L38.93,65.371 L38.93,90.786 L38.93,90.786 Z" id="Fill-1"></path>
                    <path d="M133.748,91.672 C157.548,91.672 172.973,78.156 172.973,53.475 L172.973,1.42108547e-14 L149.468,1.42108547e-14 L149.468,51.271 C149.468,64.053 143.444,70.664 133.748,70.664 C123.905,70.664 117.882,64.053 117.882,51.271 L117.882,1.42108547e-14 L94.376,1.42108547e-14 L94.376,53.328 C94.376,78.156 109.949,91.672 133.748,91.672 Z M204.999,84.914 C208.084,88.44 214.548,91.672 221.306,91.672 C240.404,91.672 250.835,75.952 250.835,57.148 C250.835,38.196 240.404,22.624 221.306,22.624 C214.548,22.624 208.084,25.856 204.999,29.382 L204.999,24.093 L181.934,24.093 L181.934,113.562 L204.999,113.562 L204.999,84.914 Z M204.999,48.333 C206.762,44.807 210.581,42.163 215.136,42.163 C223.069,42.163 227.77,48.627 227.77,57.148 C227.77,65.669 223.069,71.986 215.136,71.986 C210.728,71.986 206.762,69.488 204.999,65.816 L204.999,48.333 L204.999,48.333 Z" id="Fill-2"></path>
                </g>
                <g id="Fill-4" transform="translate(0.000000, 23.354000)">
                    <path d="M56.708,43.633 C63.319,41.282 68.754,34.23 68.754,24.534 C68.754,8.374 57.442,1.42108547e-14 38.638,1.42108547e-14 L0,1.42108547e-14 L0,90.203 L41.429,90.203 C60.234,90.203 71.399,81.242 71.399,64.935 C71.399,54.798 65.229,46.424 56.708,43.633 Z M22.477,35.699 L22.477,19.392 L35.993,19.392 C42.898,19.392 46.571,21.89 46.571,27.472 C46.571,33.055 42.898,35.699 35.993,35.699 L22.477,35.699 Z M22.477,53.329 L38.344,53.329 C44.955,53.329 48.628,56.708 48.628,62.143 C48.628,67.285 44.955,70.811 38.344,70.811 L22.477,70.811 L22.477,53.329 Z M118.115,67.138 C116.793,71.693 113.12,73.749 108.419,73.749 C101.808,73.749 97.695,69.489 96.96,61.556 L139.711,61.556 L139.711,55.826 C139.711,36.14 128.252,22.624 107.978,22.624 C88.88,22.624 74.777,36.728 74.777,57.148 C74.777,77.716 88.145,91.672 108.419,91.672 C125.608,91.672 137.067,82.417 139.417,67.138 L118.115,67.138 Z M107.978,40.547 C113.708,40.547 117.087,44.661 117.381,50.097 L97.401,50.097 C98.87,43.926 102.543,40.547 107.978,40.547 Z M204.937,90.203 L204.937,49.656 C204.937,32.467 194.213,22.477 175.408,22.477 C158.367,22.477 147.055,32.614 145.145,45.395 L166.888,45.395 C167.916,42.457 170.413,40.547 174.674,40.547 C180.256,40.547 182.754,44.22 182.754,48.481 L182.754,52.741 C180.11,50.831 173.646,49.068 168.21,49.068 C153.813,49.068 142.794,57.295 142.794,70.076 C142.794,84.033 153.813,91.379 166.888,91.379 C173.939,91.379 180.55,89.028 182.754,86.824 L182.754,90.203 L204.937,90.203 Z M182.754,71.693 C181.285,74.337 177.318,76.1 173.058,76.1 C168.504,76.1 163.949,74.19 163.949,69.636 C163.949,65.228 168.504,63.319 173.058,63.319 C177.318,63.319 181.285,65.082 182.754,67.873 L182.754,71.693 Z M271.634,30.558 C267.668,25.856 261.791,22.624 253.418,22.624 C246.072,22.624 239.755,25.416 236.376,29.529 L236.376,24.093 L213.311,24.093 L213.311,90.203 L236.376,90.203 L236.376,49.95 C237.404,45.395 240.93,42.898 244.897,42.898 C250.039,42.898 252.389,46.865 252.389,52.447 L252.389,90.203 L275.307,90.203 L275.307,49.95 C276.483,45.395 279.861,42.898 283.828,42.898 C288.97,42.898 291.32,46.865 291.32,52.447 L291.32,90.203 L314.385,90.203 L314.385,46.865 C314.385,32.027 305.865,22.624 292.055,22.624 C282.359,22.624 275.601,26.444 271.634,30.558 L271.634,30.558 Z" id="Fill-3"></path>
                </g>
            </g>
        </g>
    </g>
</svg>