
<svg width="252px" height="116px" viewBox="0 0 252 116" version="1.1" xmlns="http://www.w3.org/2000/svg" xmlns:xlink="http://www.w3.org/1999/xlink">
    <g id="Page-1" stroke="none" stroke-width="1" fill="none" fill-rule="evenodd">
        <g id="BIU_Logo_liggend" transform="translate(-340.000000, -152.000000)" fill="#1A1919">
            <g id="Group" transform="translate(340.747000, 152.723000)">
                <path d="M1.469,113.557 L24.534,113.557 L24.534,47.447 L1.469,47.447 L1.469,113.557 Z M26.15,29.524 C26.15,21.885 20.127,17.037 13.075,17.037 C6.023,17.037 -2.84217094e-14,21.885 -2.84217094e-14,29.524 C-2.84217094e-14,37.017 6.023,41.865 13.075,41.865 C20.127,41.865 26.15,37.017 26.15,29.524 Z M38.93,90.786 C38.93,107.534 47.744,114.879 63.317,114.879 C68.459,114.879 73.454,113.998 76.098,112.823 L76.098,93.284 C74.041,94.165 71.25,94.753 68.752,94.753 C64.198,94.753 61.701,92.549 61.701,87.407 L61.701,65.371 L75.51,65.371 L75.51,47.447 L61.701,47.447 L61.701,29.231 L38.93,29.231 L38.93,47.447 L29.233,47.447 L29.233,65.371 L38.93,65.371 L38.93,90.786 L38.93,90.786 Z" id="Fill-1"></path>
                <path d="M133.748,91.672 C157.548,91.672 172.973,78.156 172.973,53.475 L172.973,1.42108547e-14 L149.468,1.42108547e-14 L149.468,51.271 C149.468,64.053 143.444,70.664 133.748,70.664 C123.905,70.664 117.882,64.053 117.882,51.271 L117.882,1.42108547e-14 L94.376,1.42108547e-14 L94.376,53.328 C94.376,78.156 109.949,91.672 133.748,91.672 Z M204.999,84.914 C208.084,88.44 214.548,91.672 221.306,91.672 C240.404,91.672 250.835,75.952 250.835,57.148 C250.835,38.196 240.404,22.624 221.306,22.624 C214.548,22.624 208.084,25.856 204.999,29.382 L204.999,24.093 L181.934,24.093 L181.934,113.562 L204.999,113.562 L204.999,84.914 Z M204.999,48.333 C206.762,44.807 210.581,42.163 215.136,42.163 C223.069,42.163 227.77,48.627 227.77,57.148 C227.77,65.669 223.069,71.986 215.136,71.986 C210.728,71.986 206.762,69.488 204.999,65.816 L204.999,48.333 L204.999,48.333 Z" id="Fill-2"></path>
            </g>
        </g>
    </g>
</svg>