<?xml version="1.0" encoding="utf-8"?>
<!-- Generator: Adobe Illustrator 22.1.0, SVG Export Plug-In . SVG Version: 6.00 Build 0)  -->
<svg version="1.1" id="Layer_1" xmlns="http://www.w3.org/2000/svg" xmlns:xlink="http://www.w3.org/1999/xlink" x="0px" y="0px"
	 viewBox="0 0 79.3 70.1" style="enable-background:new 0 0 79.3 70.1;" xml:space="preserve">
<style type="text/css">
	.st0{fill:#FFFFFF;}
</style>
<g>
	<path class="st0" d="M3.1,31.3c1.5,8.4,2.2,15.4,4.1,22c1.3,4.5,5,7.7,10.1,7.5c5.1-0.2,6.3-4.6,7-8.4c2.2-11.1,1.6-22.4-1.1-33.2
		c-1.8-7.6-9.8-9-14.2-2.5C6,21.1,4.8,27,3.1,31.3z M53.2,29.8C54.5,34.6,55.8,41,58,47c0.7,1.8,4,3.5,6.2,3.5
		c1.5,0,3.7-2.5,4.5-4.3c1.2-2.7,1.9-5.7,2.1-8.7c0.6-8.4,0.7-17-4-24.5c-1.2-1.8-4.4-4-6-3.5c-2.2,0.6-4.6,3.3-5.4,5.6
		C54.1,19.2,54,23.6,53.2,29.8z"/>
	<path d="M5,31.8c0-4,0.9-10.8,4-15.3c4.4-6.5,12.4-5.1,14.2,2.5c2.6,10.9,3.3,22.1,1.1,33.2c-0.8,3.8-1.9,8.2-7,8.4
		c-5.1,0.2-8.8-3-10.1-7.5C5.4,46.6,5,40.9,5,31.8z"/>
	<path d="M53.2,29.8c0.8-6.1,0.9-10.5,2.2-14.5c0.7-2.3,3.2-5,5.4-5.6c1.6-0.5,4.9,1.7,6,3.5c4.7,7.5,4.6,16,4,24.5
		c-0.2,2.9-0.9,6-2.1,8.7c-0.8,1.9-3,4.4-4.5,4.3C62,50.5,59.3,48.5,58,47C54.5,43.2,53.2,38.4,53.2,29.8z"/>
</g>
</svg>
